<svg version="1.1" id="Layer_1" xmlns="http://www.w3.org/2000/svg" xmlns:xlink="http://www.w3.org/1999/xlink" x="0px" y="0px"
	 width="100%" viewBox="0 0 688 512" enable-background="new 0 0 688 512" xml:space="preserve">
<path fill="#000000" opacity="1.000000" stroke="none" 
	d="
M366.669403,361.293610 
	C365.223755,363.797180 365.310638,367.128967 362.505920,369.261292 
	C358.474640,366.269928 361.295532,361.519287 359.244781,358.154388 
	C357.128082,357.455536 355.918823,359.239624 354.526184,360.192108 
	C347.081116,365.284149 339.240204,369.672974 331.190491,373.710541 
	C324.375610,377.128693 324.375183,377.127808 323.526398,384.065552 
	C320.169128,382.523651 316.965851,381.954163 314.747009,385.871460 
	C314.380615,386.518280 313.191711,386.504974 312.486084,385.866913 
	C310.927521,384.457520 312.385284,382.704895 311.941711,380.621338 
	C305.363525,381.890350 298.802643,383.267731 292.200470,384.405579 
	C279.667999,386.565521 267.017456,386.590515 254.354553,386.230682 
	C252.219421,386.170013 249.553513,384.761169 248.746887,388.320953 
	C248.717636,388.450012 248.481583,388.650726 248.384354,388.628906 
	C243.007629,387.421875 242.016006,391.676483 240.952820,395.449158 
	C237.643631,393.987732 238.507843,391.052063 237.290161,389.240784 
	C235.798431,387.021820 233.068954,389.788666 231.340195,388.066132 
	C230.289093,386.192627 232.492676,385.543884 232.776169,384.146271 
	C232.192688,382.908997 230.853729,382.910431 229.835556,382.609039 
	C212.005157,377.330872 194.939804,370.404968 179.672256,359.562531 
	C176.549042,357.344574 173.571915,354.908386 170.360413,352.831024 
	C167.449661,350.948242 165.694824,346.320923 160.773361,348.619354 
	C160.307297,348.837036 158.922318,347.087128 157.987350,346.271088 
	C156.549164,346.857056 155.936539,348.706024 153.271179,348.285431 
	C154.098709,343.477600 152.088943,339.706604 147.448914,338.195282 
	C147.953156,334.864655 150.836029,336.435150 152.240067,334.375977 
	C132.233414,309.850494 119.419937,281.982666 116.638382,250.072678 
	C115.187431,248.641937 113.662621,250.988327 112.357803,249.676895 
	C111.589363,243.573105 111.589363,243.573105 107.427246,239.452454 
	C107.632454,237.902451 108.846481,237.618103 110.002640,237.768402 
	C114.758461,238.386597 115.540451,235.606232 115.682777,231.746201 
	C116.477539,210.190231 121.363785,189.612045 130.713699,170.131897 
	C131.362198,168.780777 131.869812,167.356598 132.585709,166.044281 
	C134.445374,162.635300 134.733459,159.783493 130.338608,158.115982 
	C129.700165,157.873734 129.324081,156.940002 128.160965,155.505020 
	C133.662430,154.758347 137.216965,152.323074 137.020035,146.863312 
	C140.882111,147.118896 139.612534,150.925812 142.221085,152.137115 
	C144.734451,148.656235 147.211700,144.996231 149.918060,141.514328 
	C167.678238,118.664902 191.428085,104.411209 218.003128,94.246071 
	C220.154449,93.423172 222.629608,93.083313 222.907990,90.040588 
	C222.993332,89.107895 223.904495,88.417534 224.674515,88.574356 
	C230.493942,89.759514 231.196381,85.734886 231.957962,81.657867 
	C232.034012,81.250679 232.553925,80.926392 232.815308,80.624336 
	C234.245560,80.332001 234.995834,81.255157 235.018265,82.188019 
	C235.165329,88.306007 239.429825,88.222061 243.494156,87.536385 
	C269.434296,83.160126 294.539673,87.276176 319.321381,94.750526 
	C323.455872,95.997528 327.527069,97.544373 331.474060,99.298073 
	C335.520050,101.095757 338.203461,100.908272 338.897827,95.811615 
	C339.020264,94.912949 339.760193,94.098396 340.096130,93.468002 
	C341.463928,93.174171 342.170959,93.784126 342.335693,94.579483 
	C343.126312,98.396950 344.698914,100.273277 349.147400,101.397453 
	C354.493988,102.748589 348.447937,104.940598 348.176208,107.368828 
	C357.603241,114.104507 367.167328,121.015762 375.800842,129.074844 
	C384.356323,137.061157 391.641174,146.125580 397.757690,155.695541 
	C399.772552,156.216309 400.108002,153.929733 402.406372,154.409073 
	C403.326477,158.492325 405.587158,162.093765 411.900085,161.332306 
	C404.188782,168.048981 408.578644,174.376709 410.770996,180.158096 
	C421.488037,208.420059 423.139038,237.148376 416.189728,266.471771 
	C415.854340,267.886963 414.942932,269.262451 415.686707,270.814636 
	C416.807495,272.260620 419.095459,270.791504 420.482697,273.277527 
	C415.727570,275.267273 416.440216,279.451691 417.522980,283.119934 
	C415.228760,284.558624 414.124176,282.524200 411.511200,283.105713 
	C405.342072,302.138550 394.367310,319.294830 381.673462,335.447693 
	C384.808105,338.561462 389.473053,336.281494 392.551331,339.436188 
	C389.886627,343.065186 385.732178,342.879822 382.292236,344.024323 
	C375.650970,346.233978 375.668304,346.068451 379.121613,352.286774 
	C380.317657,354.440430 382.046295,356.383423 382.058533,359.547363 
	C381.584351,360.329132 381.324280,360.568787 380.746826,360.696869 
	C378.925842,359.622894 377.368439,358.734375 375.927887,357.685364 
	C369.521851,353.020447 369.370636,353.059692 367.129761,360.812561 
	C366.977203,360.973785 366.669403,361.293610 366.669403,361.293610 
M342.082245,337.594299 
	C344.038818,336.064423 345.995422,334.534515 347.671661,333.223846 
	C348.331970,331.290039 346.153717,330.166351 347.406311,328.286926 
	C355.406616,329.578339 358.809753,323.857758 362.062439,317.920898 
	C362.590942,316.956268 362.476868,315.244904 363.942566,315.283905 
	C367.382172,315.375397 368.264862,312.461121 369.787354,310.482910 
	C375.196686,303.454468 378.804688,295.339935 383.275543,287.751862 
	C387.837036,280.009888 384.929138,269.998627 391.615417,263.176483 
	C391.706055,263.084015 391.640167,262.850464 391.674255,262.688446 
	C393.362274,254.669800 393.932098,246.548889 393.869812,238.373795 
	C393.808960,230.390274 394.215729,222.405701 392.826874,214.454666 
	C391.420258,206.401688 388.997864,198.636826 386.962189,190.754471 
	C384.980072,183.079422 376.208191,179.111679 376.531494,170.400726 
	C376.550964,169.875519 375.796570,169.327469 375.415771,168.780624 
	C365.085236,153.946320 352.112030,141.895767 336.984711,132.066788 
	C334.115356,130.202423 331.371735,128.581284 327.747284,129.206696 
	C325.823303,129.538681 323.899994,128.915192 323.086151,127.034126 
	C321.579559,123.551956 318.595917,122.326355 315.353119,121.333923 
	C309.625763,119.581131 304.006317,117.123108 298.148010,116.228104 
	C287.727295,114.636078 277.317596,109.734810 266.562988,114.944153 
	C265.936523,115.247604 264.916840,114.958588 264.150391,114.719810 
	C256.669525,112.389130 249.543716,112.562759 243.011703,117.487228 
	C241.569183,118.574738 239.832458,118.244194 238.179703,118.293678 
	C236.192276,118.353172 234.121582,118.133919 232.233673,118.613243 
	C219.044205,121.961937 206.294281,126.923981 195.554016,135.099457 
	C190.763687,138.745850 186.559814,142.949982 181.079025,146.014755 
	C175.493408,149.138153 171.493515,154.727936 167.440491,159.794617 
	C162.515610,165.951172 159.888382,173.539368 154.610168,179.677246 
	C150.467560,184.494553 148.553894,191.159195 146.855499,197.430084 
	C143.139832,211.149261 138.411758,224.809601 142.108856,239.395096 
	C142.265732,240.014008 142.355957,240.871582 142.053650,241.350677 
	C139.158478,245.938614 140.659729,250.730225 141.386108,255.435135 
	C145.029236,279.032043 154.579025,300.144745 169.686417,318.455017 
	C173.711594,323.333557 179.073639,327.470947 183.853867,331.777863 
	C195.009857,341.829224 208.293991,349.142120 222.447632,354.406219 
	C229.179749,356.910065 235.963654,360.426117 243.650635,357.752319 
	C244.897858,357.318451 246.373505,357.745148 247.369110,358.759888 
	C250.087311,361.530304 253.516479,361.779724 257.086304,361.747711 
	C262.918274,361.695374 268.804016,362.209686 274.571930,361.593781 
	C286.013428,360.372009 297.905884,360.735474 308.040009,353.740265 
	C308.782990,353.227386 310.066406,352.876038 310.851624,353.152130 
	C314.465973,354.422821 317.326416,352.666504 320.314789,351.197083 
	C327.819946,347.506653 334.724701,342.855042 342.082245,337.594299 
M135.675125,280.920166 
	C143.514130,299.268097 149.566406,318.521149 163.217834,333.995819 
	C169.891617,331.480713 171.779877,327.632477 167.785339,322.521545 
	C155.102432,306.294067 143.649994,289.233521 132.356369,271.940613 
	C133.369812,274.695251 134.383255,277.449890 135.675125,280.920166 
M368.581451,148.898605 
	C361.515900,137.805695 354.751099,126.487373 346.301300,116.366753 
	C340.965118,109.975388 340.611755,110.156502 335.414551,116.809647 
	C331.094208,122.340347 331.072296,123.703400 336.511322,127.049446 
	C350.808136,135.844757 362.823151,147.215591 374.371796,159.378616 
	C372.557739,156.097565 370.743652,152.816528 368.581451,148.898605 
M212.521515,365.903137 
	C215.830490,367.669098 219.139450,369.435059 222.448425,371.201019 
	C208.963760,360.087921 196.750824,347.647980 183.072601,336.858765 
	C176.392105,331.589264 171.351974,332.147247 166.077454,340.369049 
	C181.347412,348.777649 196.604370,357.179138 212.521515,365.903137 
M264.143463,103.295395 
	C268.853821,104.925987 272.580688,108.681778 278.450104,107.843048 
	C290.112854,106.176476 301.903076,105.402084 313.640625,104.259026 
	C290.901245,100.480202 268.406860,95.114777 245.181976,94.993309 
	C251.271912,97.655640 257.361816,100.317970 264.143463,103.295395 
M289.009796,367.378601 
	C294.173340,365.680878 299.336884,363.983124 304.500427,362.285400 
	C302.938934,361.456909 301.649200,361.580170 300.383026,361.825012 
	C294.360016,362.989594 288.359589,364.277802 282.320984,365.352814 
	C272.382446,367.121979 262.431152,365.813110 252.487183,365.266968 
	C250.484375,365.156952 248.409225,364.897797 247.002472,366.794464 
	C244.685272,369.918732 242.204300,373.709656 244.126877,377.202759 
	C245.789810,380.224091 249.828323,378.707825 252.822510,377.853973 
	C264.641357,374.483612 276.435852,371.027832 289.009796,367.378601 
M370.358704,327.257660 
	C375.663269,322.983337 378.873627,317.026917 382.091553,311.324280 
	C385.008545,306.154877 391.179932,304.139038 393.260681,298.436676 
	C389.647125,297.898438 390.646515,295.879547 391.935944,294.039368 
	C394.802216,289.948822 397.856720,285.990082 400.717468,281.895844 
	C401.772949,280.385315 404.280060,279.117615 402.822815,276.859283 
	C401.523315,274.845520 398.993774,275.022766 396.854004,275.087067 
	C393.837982,275.177704 391.768005,277.148163 390.848724,279.700592 
	C387.474213,289.069580 382.807129,297.802338 377.236633,307.597809 
	C381.615845,303.525635 383.985107,299.229584 389.121460,296.971313 
	C388.236084,300.634674 386.091034,302.519958 384.231903,304.544434 
	C379.838348,309.328857 375.304138,313.985168 370.954376,318.808350 
	C368.782806,321.216217 366.830231,323.867920 370.358704,327.257660 
M213.930191,120.282585 
	C218.462326,118.700233 222.951828,116.979553 227.535995,115.565948 
	C235.668701,113.058083 236.927658,110.070450 232.737518,101.846886 
	C229.114426,104.440002 227.962173,102.085510 227.711548,98.544548 
	C217.009079,106.637207 208.966248,116.498856 199.508026,126.750603 
	C204.858276,124.353592 209.044662,122.478020 213.930191,120.282585 
M298.641724,111.775772 
	C304.825775,113.708267 311.264771,115.071808 317.135773,117.702835 
	C326.612122,121.949524 330.864716,118.394348 335.023132,107.357750 
	C330.093231,105.613335 300.288574,107.717377 293.514069,110.327003 
	C295.040894,110.765900 296.466797,111.175797 298.641724,111.775772 
M398.226379,235.519821 
	C398.305664,244.678757 397.264496,253.715424 395.543182,262.707123 
	C395.067413,265.192383 394.208435,268.369415 397.322632,269.816681 
	C399.953186,271.039215 403.430206,272.454163 405.777496,270.692200 
	C408.157471,268.905670 407.915344,265.504822 406.961121,262.381592 
	C405.607422,257.950928 404.571228,253.406326 403.674805,248.856171 
	C401.335449,236.981812 399.145844,225.077957 396.896545,213.185867 
	C397.079254,220.363556 398.401947,227.387192 398.226379,235.519821 
M305.288666,375.608002 
	C302.603729,378.797150 298.802429,378.073364 295.363831,378.261200 
	C283.669159,378.900055 271.980316,379.505463 260.462097,381.805145 
	C264.737457,382.009277 268.995117,382.046082 273.251923,382.001923 
	C283.412628,381.896576 293.489258,380.950562 303.368988,378.505829 
	C304.926392,378.120453 307.649719,378.355804 307.494934,375.919586 
	C307.329468,373.315338 308.924713,373.196350 310.478546,372.904602 
	C312.884247,372.452972 314.273285,371.447540 313.141571,368.854340 
	C312.263306,366.842010 311.942383,363.898376 308.556122,364.852722 
	C297.538330,367.957855 286.501465,371.016602 275.875732,375.452881 
	C279.905060,375.555725 283.877960,374.935120 287.808777,375.136444 
	C293.538055,375.429993 299.213257,372.241272 305.288666,375.608002 
M144.150055,283.305847 
	C141.531204,274.150787 138.561600,265.094482 137.112228,255.628632 
	C136.613220,252.369797 137.088821,248.958160 135.611725,245.843796 
	C133.698959,241.810898 130.191422,241.713608 126.685928,242.600922 
	C123.388878,243.435486 124.784798,246.072495 124.971901,248.352158 
	C125.297203,252.315826 126.948410,255.648056 128.970474,258.926147 
	C133.931778,266.969330 138.830551,275.051025 144.150055,283.305847 
M236.901688,377.636841 
	C242.576401,371.738983 240.876175,363.862610 233.423203,361.602753 
	C230.559433,360.734436 227.668640,359.955566 224.797729,359.110260 
	C218.241852,357.179993 212.145035,354.022644 205.440170,352.184479 
	C215.755417,360.572357 226.070663,368.960266 236.901688,377.636841 
M193.618149,121.156906 
	C182.324814,129.144211 170.810654,136.837738 160.350128,146.003265 
	C163.507538,145.378265 166.525482,144.555817 169.447662,143.474548 
	C174.509674,141.601486 180.817123,141.632614 182.707977,134.752014 
	C183.040436,133.542267 184.689667,133.017944 186.030899,132.812241 
	C188.642563,132.411713 190.581406,130.860779 192.445923,129.195541 
	C198.865509,123.461998 204.091675,116.648529 209.538483,109.983154 
	C204.424301,113.566231 199.310135,117.149307 193.618149,121.156906 
M278.186859,90.340179 
	C269.926697,90.112274 261.657776,89.415108 253.410812,90.793861 
	C278.299988,93.695824 302.838837,98.710236 327.564911,102.761330 
	C325.093475,101.135910 322.504791,100.069435 319.890747,99.069130 
	C306.753143,94.041771 292.972870,92.021698 278.186859,90.340179 
M393.246796,172.470947 
	C387.087189,174.947952 387.032684,175.165649 391.037750,180.636642 
	C391.903809,181.819717 393.061035,182.990555 391.852997,184.328537 
	C389.979156,185.498352 389.774811,182.805878 388.123352,183.279663 
	C389.534119,187.527313 390.936981,191.751114 392.358276,196.030441 
	C393.145721,195.062439 392.174347,193.538849 394.137085,192.597473 
	C398.473297,200.432327 398.612366,209.548523 401.866089,218.309479 
	C400.729584,204.808441 399.756592,191.913528 398.472351,179.049698 
	C398.194580,176.267349 397.401031,173.174118 393.246796,172.470947 
M404.036499,201.786819 
	C405.956543,220.120483 406.902069,238.573486 410.891632,256.655304 
	C411.226044,229.752930 408.087311,203.258301 401.401215,177.178116 
	C402.213379,185.082077 403.025513,192.986053 404.036499,201.786819 
M368.889130,143.283127 
	C372.473053,150.048141 376.029053,156.828171 379.648468,163.574142 
	C383.593567,170.927109 386.180054,171.475845 394.129181,166.518494 
	C387.062439,157.109726 377.571503,150.371017 368.889130,143.283127 
M168.119720,152.642838 
	C170.089874,150.491867 172.060028,148.340897 174.030182,146.189926 
	C173.781235,145.815018 173.532288,145.440109 173.283356,145.065201 
	C165.811600,148.140442 158.249298,151.020615 150.927872,154.419662 
	C148.945770,155.339890 146.495010,157.681213 148.153275,160.432556 
	C150.511124,164.344620 158.361603,164.516678 161.406494,160.972519 
	C163.574493,158.449036 165.570679,155.777924 168.119720,152.642838 
M127.797447,221.252533 
	C125.082092,226.153000 122.568733,231.114212 122.827629,236.923080 
	C131.489883,239.024582 134.432617,237.039444 134.625092,228.889313 
	C134.777374,222.440948 134.655716,215.986130 134.655716,209.334488 
	C132.447876,213.180801 130.312332,216.901184 127.797447,221.252533 
M139.549408,299.320068 
	C139.188538,294.683319 134.672928,292.538452 133.220978,288.272675 
	C129.844284,278.352112 125.193993,268.885406 121.641701,258.998535 
	C125.629921,280.881195 133.408340,301.215515 146.059464,319.563812 
	C144.738785,312.739288 139.846375,307.173431 139.549408,299.320068 
M339.080688,344.530426 
	C332.068512,349.451569 324.556854,353.559845 317.225433,358.153351 
	C328.517365,354.164062 341.868988,356.245453 351.172485,346.170532 
	C347.129944,345.911926 343.942963,342.090240 339.080688,344.530426 
M167.843079,128.352081 
	C162.780563,132.599121 158.127136,137.244980 154.043320,142.477036 
	C172.215927,128.003525 191.616974,115.285629 210.551910,101.895180 
	C195.253708,108.557465 181.338547,117.440849 167.843079,128.352081 
M246.811676,110.601799 
	C250.254990,110.267403 253.699432,109.944290 257.141022,109.593071 
	C258.522461,109.452095 259.856018,108.982841 260.255707,107.548561 
	C260.728638,105.851540 259.235077,105.238472 258.088257,104.695633 
	C252.584549,102.090515 247.018448,99.628029 241.212646,97.848732 
	C237.610275,105.097084 238.820862,108.180244 246.811676,110.601799 
M126.769615,216.525909 
	C135.445633,204.742966 138.430466,191.460342 136.799164,177.650635 
	C131.540588,189.158234 128.090500,201.931168 125.556953,214.974503 
	C125.450439,215.522827 124.124023,217.386276 126.769615,216.525909 
M148.946732,177.465088 
	C149.668030,176.356827 150.378708,175.241486 151.112869,174.141815 
	C152.594254,171.922913 153.329254,169.658676 151.433121,167.304764 
	C149.630402,165.066833 147.696182,165.035965 145.464569,166.827911 
	C144.490234,167.610275 142.813492,166.165314 141.460892,168.106064 
	C141.732300,174.884155 139.524200,182.083328 140.650360,190.458664 
	C143.633041,185.777710 146.089172,181.923126 148.946732,177.465088 
M413.178986,225.745255 
	C413.134460,234.064774 415.003113,242.267700 414.634827,250.598984 
	C417.339935,227.395126 415.425110,204.718567 406.800446,182.830978 
	C407.498871,187.165558 408.649750,191.433945 409.281372,195.777832 
	C410.686310,205.439896 411.831360,215.139755 413.178986,225.745255 
M383.628540,143.793030 
	C375.668610,135.383453 367.780365,126.897331 358.327789,120.044418 
	C362.069855,124.898376 367.233887,128.571014 370.847626,134.915237 
	C366.199982,133.845825 364.306824,130.655975 361.382568,129.047958 
	C367.721405,137.337799 375.337036,144.288406 384.253845,151.994141 
	C381.635925,147.561813 378.168945,145.465561 377.110107,140.936462 
	C381.551147,142.729233 383.522583,146.566971 387.145966,148.215973 
	C386.118683,146.915619 385.091431,145.615280 383.628540,143.793030 
M183.018768,353.654572 
	C181.219971,352.655884 179.421158,351.657227 177.622345,350.658569 
	C190.164154,361.589050 204.099289,369.918365 220.270035,374.159241 
	C208.063293,367.441223 195.856537,360.723206 183.018768,353.654572 
M319.725281,370.262756 
	C326.321960,367.517456 330.902802,362.061646 337.616119,357.708557 
	C331.597382,358.034821 327.090424,359.600586 322.532593,360.934540 
	C314.944763,363.155243 314.892914,363.297272 319.725281,370.262756 
M353.724854,352.439423 
	C344.118958,356.636688 336.149811,363.168152 328.446808,370.095276 
	C339.075317,365.375732 349.195374,359.870544 358.359467,352.126617 
	C356.464539,351.078461 355.476562,352.028168 353.724854,352.439423 
M125.475594,194.919739 
	C124.411987,199.269333 123.245361,203.597031 122.314537,207.974884 
	C121.430298,212.133606 120.792725,216.344788 120.046692,220.532898 
	C123.711327,206.077515 127.063446,191.612534 132.373993,177.659882 
	C129.270615,182.828857 127.601555,188.532257 125.475594,194.919739 
M138.693024,216.394058 
	C139.848755,208.306427 142.040329,200.445877 144.616837,191.704605 
	C137.934052,199.593842 138.870193,208.273071 138.693024,216.394058 
M396.321716,306.753357 
	C396.211761,306.645599 396.112671,306.468353 395.988861,306.449005 
	C395.856079,306.428284 395.631439,306.514252 395.564117,306.624939 
	C393.211548,310.493530 390.872864,314.370544 388.532196,318.246338 
	C388.813202,318.416870 389.094208,318.587372 389.375214,318.757874 
	C391.659363,314.909607 393.943512,311.061340 396.321716,306.753357 
z"/>
<path fill="#000000" opacity="1.000000" stroke="none" 
	d="
M381.064209,360.808441 
	C381.324280,360.568787 381.584351,360.329132 382.048706,359.917297 
	C388.279907,357.026306 388.144531,352.440887 385.228149,347.492218 
	C388.325470,346.422913 389.406891,348.297943 390.555847,349.519409 
	C395.845856,355.143127 401.532471,360.755432 408.502228,363.627289 
	C415.945251,366.694122 420.245270,372.269379 425.531250,377.602875 
	C437.822296,390.004547 451.148163,401.376923 463.977722,413.249542 
	C480.715912,428.739288 497.379791,444.309357 514.075806,459.844696 
	C514.807007,460.525055 515.440002,461.612701 516.287720,461.820190 
	C526.280090,464.266510 523.516052,472.015778 522.691467,478.297394 
	C521.652771,486.209717 516.924011,491.344879 508.803467,493.415649 
	C502.788086,494.949585 496.907593,492.133209 490.967621,493.565857 
	C490.309998,493.724487 488.898590,492.798920 488.592682,492.062286 
	C485.101929,483.656677 477.440582,479.001129 471.400635,472.950684 
	C448.106506,449.616089 424.620392,426.473145 401.195770,403.268921 
	C398.626129,400.723450 396.343811,398.109192 392.056213,397.927460 
	C389.101074,397.802246 387.582642,395.006653 388.624298,391.935822 
	C389.553558,389.196289 388.737030,387.015350 387.201447,384.959625 
	C382.798248,379.064941 379.838623,371.972351 372.293976,368.746735 
	C369.743225,367.656189 367.518829,365.132996 366.713165,361.641052 
	C366.669403,361.293610 366.977203,360.973785 367.402771,360.793945 
	C369.333771,360.412323 370.263611,361.416687 371.294250,362.241516 
	C376.676056,366.548676 376.679535,366.544312 381.064209,360.808441 
M426.586090,421.903717 
	C447.231537,445.098969 473.659241,461.989319 495.366913,484.492004 
	C498.005371,482.386749 500.973389,480.080933 503.137329,476.592712 
	C471.436646,445.987091 434.696228,422.095947 400.474426,395.068817 
	C409.007935,403.848694 417.541473,412.628571 426.586090,421.903717 
M439.995697,399.505798 
	C433.204651,392.657440 426.493561,385.726929 419.582062,379.002380 
	C416.933594,376.425598 413.814789,377.602783 412.937347,381.114716 
	C412.418365,383.191956 413.976440,384.139709 415.101135,385.259888 
	C443.259735,413.306030 471.431213,441.339233 499.645294,469.329498 
	C500.817383,470.492340 501.986206,472.087433 504.107666,471.886841 
	C504.564270,469.592621 502.824036,468.728973 501.864105,467.522247 
	C482.890991,443.669861 461.795715,421.745056 439.995697,399.505798 
M404.065399,390.869324 
	C403.656189,392.578522 405.019440,393.169769 406.035522,393.963165 
	C417.559692,402.962067 429.057404,411.995209 440.628510,420.933350 
	C446.472443,425.447449 452.451324,429.786835 458.369171,434.205261 
	C442.539551,417.532166 426.662964,401.044891 409.914368,385.642517 
	C407.293213,386.763214 405.594299,388.278687 404.065399,390.869324 
M404.294037,366.253448 
	C401.128998,363.840485 397.891571,361.515259 394.823547,358.984650 
	C392.659760,357.199860 391.083954,357.613495 389.338837,359.564850 
	C387.546753,361.568787 387.404816,363.295929 389.550354,365.051178 
	C393.140961,367.988647 396.659637,371.018860 400.329681,373.853271 
	C405.584991,377.912018 407.014862,377.520996 410.530365,371.268555 
	C409.159698,369.180359 406.813629,368.162994 404.294037,366.253448 
M383.247009,372.243744 
	C386.928284,376.890869 390.609528,381.537994 394.362335,386.275391 
	C395.574951,385.599274 396.635651,385.122223 397.571503,384.466888 
	C402.510193,381.008240 402.561737,379.717987 398.012421,376.008118 
	C394.538971,373.175629 391.076447,370.329773 387.601654,367.498962 
	C386.246063,366.394562 385.065704,364.493530 382.951416,366.114502 
	C380.665253,367.867340 381.221985,369.791992 383.247009,372.243744 
M501.646790,455.836243 
	C494.978546,449.482086 488.310333,443.127899 481.642120,436.773743 
	C490.257050,449.012024 500.595947,459.772064 508.799652,472.246155 
	C513.772217,467.864960 513.807373,467.454834 509.433899,463.192047 
	C507.048279,460.866821 504.598145,458.607758 501.646790,455.836243 
M507.419617,487.128174 
	C512.952271,485.190887 515.963135,481.041840 517.435913,475.597260 
	C517.799805,474.252106 517.581543,472.934875 516.409180,471.968811 
	C515.440063,471.170258 514.532898,471.531464 513.731628,472.237244 
	C512.603271,473.231140 512.282776,474.412567 513.049744,475.805603 
	C513.369629,476.386688 513.634583,477.003021 513.872559,477.623260 
	C514.555786,479.403870 514.021729,480.917450 512.675659,482.127167 
	C511.121521,483.523834 509.403839,483.576447 507.636749,482.469727 
	C506.678864,481.869781 506.026306,480.731812 504.420715,480.795380 
	C502.491791,482.475037 500.612030,484.377136 499.923615,487.308746 
	C502.415436,487.943878 504.551544,487.713867 507.419617,487.128174 
z"/>
<path fill="#000000" opacity="1.000000" stroke="none" 
	d="
M463.172974,198.375229 
	C471.548859,199.706985 471.051514,191.815842 474.748901,186.828033 
	C476.997498,193.570572 478.728943,199.786850 487.478210,198.625702 
	C483.685089,202.745972 478.871002,205.685913 482.380249,211.148697 
	C480.694885,212.747101 479.428009,212.453796 478.294708,211.588318 
	C476.141602,209.944000 474.158447,210.042328 471.891754,211.515228 
	C469.148499,213.297760 467.674744,211.956467 467.915710,209.059296 
	C468.196228,205.685974 466.741852,203.830292 463.855103,202.444809 
	C462.358154,201.726334 460.262329,200.575241 463.172974,198.375229 
z"/>
<path fill="#000000" opacity="1.000000" stroke="none" 
	d="
M118.283279,389.736633 
	C125.667969,391.176361 124.406891,383.728790 127.249176,381.265869 
	C128.996201,381.300415 129.740280,382.229340 129.836090,383.124786 
	C130.303925,387.497345 131.597626,390.358582 137.012741,389.370117 
	C138.849808,389.034760 140.194214,391.708710 138.165756,392.670471 
	C133.018875,395.110779 133.497192,398.606232 135.144867,402.780975 
	C135.276062,403.113403 134.854584,403.663940 134.383850,404.948242 
	C130.465485,401.637543 126.390213,400.096405 123.283913,404.957886 
	C121.510521,404.419556 121.008240,403.389404 121.249504,402.460388 
	C122.342606,398.251251 121.987411,395.289673 116.992027,393.626923 
	C114.374069,392.755493 115.034119,390.512695 118.283279,389.736633 
z"/>
<path fill="#000000" opacity="1.000000" stroke="none" 
	d="
M411.499207,100.714638 
	C414.370392,100.515244 415.180481,98.756805 415.670319,96.718056 
	C416.061981,95.087860 416.400421,93.437996 419.105682,92.855850 
	C420.658142,98.126015 423.682922,102.213234 429.803558,101.274254 
	C430.454132,103.531143 429.390625,104.256821 428.382080,104.723206 
	C425.269257,106.162727 423.675995,108.007774 425.123566,111.718697 
	C425.758118,113.345406 424.483521,115.906654 422.706879,114.469734 
	C418.813873,111.321144 416.155670,113.417549 411.979095,116.806747 
	C413.528015,109.290848 410.858337,105.045036 404.500122,103.359535 
	C406.431732,100.000565 408.949768,100.927246 411.499207,100.714638 
z"/>
<path fill="#000000" opacity="1.000000" stroke="none" 
	d="
M127.263245,86.418274 
	C125.211601,87.220680 124.075035,86.283836 124.433990,84.752914 
	C125.455246,80.397270 124.000816,77.715950 119.815254,76.270401 
	C118.839722,75.933495 118.372269,74.928726 118.795532,73.567375 
	C121.016586,71.510460 124.305069,73.717484 126.664635,72.030785 
	C128.962021,70.388527 127.964142,66.872681 130.897171,64.728859 
	C134.096390,68.119987 134.308578,75.717201 142.746216,72.809708 
	C139.589035,77.475304 133.359634,79.696732 138.649277,85.670845 
	C134.152313,86.853882 130.523468,80.859863 127.263245,86.418274 
z"/>
<path fill="#000000" opacity="1.000000" stroke="none" 
	d="
M490.938416,359.155701 
	C489.479889,358.329224 488.043427,357.777222 488.424957,356.108429 
	C488.684723,354.972382 489.829620,354.632263 490.819946,354.755371 
	C496.014557,355.401031 497.942993,352.347046 498.788696,347.944366 
	C498.985687,346.918823 499.554626,346.120453 501.228088,345.543091 
	C504.787079,348.623932 502.495514,357.362061 511.349365,356.485138 
	C506.842255,360.846191 501.519928,363.358551 499.088562,370.239655 
	C496.183197,365.481934 496.742340,359.932373 490.938416,359.155701 
z"/>
<path fill="#000000" opacity="1.000000" stroke="none" 
	d="
M58.032211,308.660339 
	C64.145126,310.119934 63.759453,303.992798 67.210869,301.125854 
	C68.915497,306.441620 71.693802,310.034210 78.899849,308.510437 
	C75.727493,313.073578 69.990761,314.293335 72.991798,321.326752 
	C67.565590,317.327881 64.915901,320.278442 62.416649,322.077393 
	C60.984066,321.609772 60.590988,320.701050 60.825680,319.970428 
	C62.082920,316.056610 60.832039,313.627350 56.876854,312.456787 
	C55.746677,312.122284 54.739407,311.314270 55.143982,309.882874 
	C55.485336,308.675201 56.674812,308.844727 58.032211,308.660339 
z"/>
<path fill="#000000" opacity="1.000000" stroke="none" 
	d="
M276.040375,38.346893 
	C277.178009,41.983349 279.355560,43.944004 283.410767,44.230015 
	C281.993469,47.760506 278.605682,50.429688 281.531830,55.138939 
	C277.124512,54.504967 273.480835,52.881245 269.604889,56.717484 
	C269.908569,51.435108 269.546661,47.431469 264.401520,45.336258 
	C269.340973,44.182682 272.511932,42.034939 274.007050,37.875526 
	C274.053680,37.745834 275.181274,38.004711 276.040375,38.346893 
z"/>
<path fill="#000000" opacity="1.000000" stroke="none" 
	d="
M543.039856,251.410645 
	C540.964783,251.317581 539.825012,253.254974 537.483398,252.529633 
	C537.071289,249.051239 535.656616,245.734833 531.952637,243.133636 
	C536.618225,242.181747 539.917603,239.963379 541.025024,234.692963 
	C544.322998,238.071167 545.659058,242.146286 550.494995,241.862122 
	C549.198914,245.481796 546.705017,247.621857 546.791748,251.047714 
	C546.832886,252.673126 544.645020,251.640625 543.039856,251.410645 
z"/>
<path fill="#000000" opacity="1.000000" stroke="none" 
	d="
M188.023804,440.984772 
	C187.559540,442.713318 187.310272,444.157684 187.005783,445.921967 
	C184.336304,446.421600 181.142776,445.367859 177.940231,449.261719 
	C177.956253,443.675964 176.573807,439.985352 172.313873,437.524963 
	C176.851288,436.760498 180.257385,435.308777 181.511627,430.196106 
	C184.325348,433.784180 186.997284,436.303680 190.648193,436.875916 
	C191.016907,439.274139 189.040680,439.560699 188.023804,440.984772 
z"/>
<path fill="#000000" opacity="1.000000" stroke="none" 
	d="
M65.484879,184.822754 
	C67.035049,182.686996 68.731583,183.225327 68.911011,184.935959 
	C69.348198,189.104111 71.718956,190.941315 75.726067,191.470215 
	C75.145889,194.615051 72.298592,194.760391 70.693718,196.185501 
	C68.959984,197.725037 70.029633,200.494598 67.354568,202.245209 
	C64.939926,198.331802 61.593048,195.233398 57.008694,192.102188 
	C61.490402,190.625107 65.255318,189.763397 65.484879,184.822754 
z"/>
<path fill="#000000" opacity="1.000000" stroke="none" 
	d="
M510.387756,149.401550 
	C514.869690,143.777176 516.895874,149.979889 520.234924,150.615753 
	C519.368042,153.116516 519.184570,155.825775 517.738342,157.273300 
	C515.875366,159.137848 512.914307,158.725510 510.332977,157.928360 
	C511.204468,155.114426 504.982666,152.532974 510.387756,149.401550 
z"/>
<path fill="#000000" opacity="1.000000" stroke="none" 
	d="
M275.839661,451.643799 
	C276.987213,456.360779 275.359619,458.031677 269.177551,458.897247 
	C265.229523,453.501862 265.248077,453.405090 271.291229,448.464478 
	C272.686737,449.465454 274.120636,450.494019 275.839661,451.643799 
z"/>
<path fill="#000000" opacity="1.000000" stroke="none" 
	d="
M360.936554,454.121704 
	C362.260315,455.107971 363.315399,455.885468 364.605194,456.835907 
	C363.949768,458.771606 363.288635,460.724091 362.606262,462.739380 
	C360.492065,462.842896 358.557770,462.937592 356.527466,463.036987 
	C355.664703,461.004242 354.851746,459.088776 353.910400,456.870850 
	C356.392029,456.064636 357.286133,452.474060 360.936554,454.121704 
z"/>
<path fill="#000000" opacity="1.000000" stroke="none" 
	d="
M201.157501,58.866802 
	C201.373917,55.783928 204.374756,55.622746 205.348816,53.145123 
	C207.789581,55.246258 211.262726,55.788677 210.786179,59.330692 
	C210.471954,61.666107 208.869629,63.039257 206.058075,63.486950 
	C202.179977,64.104469 202.339478,61.193527 201.157501,58.866802 
z"/>
<path fill="#000000" opacity="1.000000" stroke="none" 
	d="
M463.776245,271.053894 
	C467.503723,267.655975 468.362183,273.490723 471.358734,271.953766 
	C470.474487,277.384064 468.096069,279.662292 463.122253,278.989044 
	C462.552032,276.429749 459.671448,273.795258 463.776245,271.053894 
z"/>
<path fill="#000000" opacity="1.000000" stroke="none" 
	d="
M501.447571,89.883156 
	C499.027496,85.525719 501.966339,83.673622 504.755920,81.271523 
	C506.024780,83.899567 510.996063,84.023315 508.545135,88.609879 
	C506.776062,91.920502 504.388214,91.642799 501.447571,89.883156 
z"/>
<path fill="#000000" opacity="1.000000" stroke="none" 
	d="
M455.468079,46.806702 
	C453.274719,43.662632 454.529449,41.707802 456.867310,39.885746 
	C458.969849,38.247124 460.135956,40.000927 461.535950,40.961559 
	C463.810150,42.521980 462.833374,44.586868 461.908447,46.187130 
	C460.377075,48.836502 458.033875,48.620594 455.468079,46.806702 
z"/>
<path fill="#000000" opacity="1.000000" stroke="none" 
	d="
M452.047333,150.934937 
	C455.295258,153.664978 452.769196,155.787979 451.409058,157.391037 
	C450.243774,158.764435 447.800781,158.570312 446.526489,157.116348 
	C445.328583,155.749496 443.943970,153.853439 445.621643,151.860458 
	C447.300049,149.866592 449.196075,148.251862 452.047333,150.934937 
z"/>
<path fill="#000000" opacity="1.000000" stroke="none" 
	d="
M547.078369,411.097382 
	C546.521423,414.037598 544.617615,414.435394 542.544189,414.095947 
	C540.417786,413.747833 539.875916,411.892334 539.524536,410.082367 
	C539.140625,408.104614 540.347534,406.835449 541.925354,406.268646 
	C546.038879,404.791046 546.343628,408.079010 547.078369,411.097382 
z"/>
<path fill="#000000" opacity="1.000000" stroke="none" 
	d="
M74.639008,261.520325 
	C73.452209,258.025757 75.709053,256.693542 77.880852,256.131958 
	C79.675224,255.667938 81.569038,257.163818 82.114578,258.901062 
	C82.673256,260.680145 81.717697,262.744446 80.062782,263.561157 
	C78.089211,264.535126 75.788841,264.731171 74.639008,261.520325 
z"/>
<path fill="#000000" opacity="1.000000" stroke="none" 
	d="
M445.996887,319.261658 
	C442.713684,319.117218 441.864075,316.963470 442.120300,314.796967 
	C442.333252,312.996307 444.161926,311.542542 446.021027,311.541504 
	C447.851349,311.540466 449.794586,312.855103 449.961823,314.714264 
	C450.157928,316.894409 449.140472,318.954926 445.996887,319.261658 
z"/>
<path fill="#000000" opacity="1.000000" stroke="none" 
	d="
M322.025269,421.434265 
	C323.829407,419.073944 325.496124,417.519775 328.248962,419.769501 
	C330.038818,421.232208 329.877502,422.721191 329.183685,424.533630 
	C328.409943,426.554901 326.587616,426.403229 325.050903,426.402130 
	C321.944366,426.399902 322.411072,423.708405 322.025269,421.434265 
z"/>
<path fill="#000000" opacity="1.000000" stroke="none" 
	d="
M103.445602,136.762390 
	C100.614113,138.878281 98.742554,138.371445 97.292305,135.437500 
	C95.486588,131.784393 98.727150,131.409515 100.339455,129.917816 
	C103.344109,131.321884 105.559471,132.879654 103.445602,136.762390 
z"/>
<path fill="#000000" opacity="1.000000" stroke="none" 
	d="
M590.568237,297.597717 
	C589.430603,300.702728 587.267761,300.680084 585.221313,299.772552 
	C583.550842,299.031769 583.284912,297.076569 583.679688,295.494415 
	C584.115234,293.748596 585.846985,292.790955 587.463623,292.975220 
	C589.685852,293.228516 591.574402,294.330231 590.568237,297.597717 
z"/>
<path fill="#000000" opacity="1.000000" stroke="none" 
	d="
M34.748917,150.903717 
	C37.770226,150.043198 39.227142,151.616470 39.624199,153.902954 
	C39.857430,155.246048 39.269398,156.931931 37.555050,157.518372 
	C35.734650,158.141083 34.231194,157.462784 33.198612,155.994858 
	C31.769232,153.962860 32.230350,152.257904 34.748917,150.903717 
z"/>
<path fill="#000000" opacity="1.000000" stroke="none" 
	d="
M572.636108,170.361267 
	C575.094299,169.445282 576.997498,169.653885 577.887634,171.942261 
	C578.577271,173.715363 577.687134,175.178375 576.093933,176.042160 
	C574.736389,176.778122 573.201904,177.066284 572.055786,175.679733 
	C570.646118,173.974365 570.210266,172.180679 572.636108,170.361267 
z"/>
<path fill="#000000" opacity="1.000000" stroke="none" 
	d="
M191.601959,18.865696 
	C191.816727,16.410078 193.116089,15.175724 195.111542,15.083548 
	C196.485550,15.020079 197.509476,16.132860 198.107651,17.366192 
	C198.795959,18.785334 198.051468,20.130556 197.138657,20.971720 
	C194.463699,23.436768 192.772156,22.049171 191.601959,18.865696 
z"/>
<path fill="#000000" opacity="1.000000" stroke="none" 
	d="
M411.294250,490.939453 
	C408.978394,492.744415 407.161102,491.995300 406.281555,489.894501 
	C405.085938,487.038757 407.459839,485.853058 409.395905,484.535858 
	C412.085724,485.990997 411.591980,488.384827 411.294250,490.939453 
z"/>
<path fill="#000000" opacity="1.000000" stroke="none" 
	d="
M566.806274,59.457962 
	C569.567078,58.800579 571.597717,59.044456 571.295593,62.265377 
	C571.106812,64.277901 569.589600,65.391457 567.805359,64.732819 
	C565.335632,63.821148 564.780945,61.888660 566.806274,59.457962 
z"/>
<path fill="#000000" opacity="1.000000" stroke="none" 
	d="
M379.392517,64.369293 
	C376.565277,64.514046 375.670197,63.153591 376.482574,60.972553 
	C377.082458,59.362041 378.713989,58.672867 380.129303,59.806118 
	C381.937042,61.253620 381.617737,62.943489 379.392517,64.369293 
z"/>
<path fill="#000000" opacity="1.000000" stroke="none" 
	d="
M193.521667,185.404938 
	C196.688385,181.001968 195.571320,175.255020 199.058777,170.560593 
	C203.278229,174.947876 201.261017,180.893707 204.230225,185.089752 
	C207.425278,186.123001 209.598419,181.654114 213.016632,183.301361 
	C214.057938,186.248657 210.355240,187.437378 210.597931,190.015839 
	C211.399002,192.740128 215.951340,191.429016 216.030914,195.304123 
	C213.115219,197.574371 208.796127,195.375198 205.873795,198.160965 
	C205.593048,202.026108 208.977814,205.366867 208.180008,209.449448 
	C205.167450,210.192703 204.720795,207.595200 203.346573,206.423889 
	C202.003769,205.279358 201.417633,203.254807 199.074997,202.916473 
	C196.149902,205.296844 195.050644,209.588364 191.486084,211.719879 
	C188.528625,209.029022 190.574890,206.381378 191.177063,204.118317 
	C192.346558,199.723083 191.430054,197.290497 186.543137,197.202362 
	C186.053955,197.193527 185.536545,197.078735 185.086395,196.886353 
	C183.638260,196.267456 181.268478,196.672989 181.056473,194.599686 
	C180.795197,192.044205 183.329590,192.286896 184.928238,191.668137 
	C185.678360,191.377792 186.388504,190.984161 187.017487,190.684616 
	C187.547028,187.980499 183.871826,187.436630 184.632751,184.461945 
	C187.604080,182.324585 190.226562,186.273972 193.521667,185.404938 
z"/>
<path fill="#000000" opacity="1.000000" stroke="none" 
	d="
M333.742615,197.197601 
	C333.055054,194.431915 332.624756,191.895248 330.506287,189.758789 
	C333.239471,187.931900 335.857147,186.560974 337.376953,183.485397 
	C339.679810,186.254135 342.491943,187.562454 345.595642,189.103912 
	C343.660797,191.502960 341.787018,193.590012 341.954742,197.015717 
	C338.913483,195.624573 336.600372,197.680359 333.742615,197.197601 
z"/>
<path fill="#000000" opacity="1.000000" stroke="none" 
	d="
M218.887817,290.075073 
	C220.102234,290.807983 221.902298,291.073669 221.218658,292.472687 
	C220.350601,294.249084 220.058029,296.707947 217.692139,297.363464 
	C216.304657,297.747864 214.809402,297.743317 213.065475,297.948730 
	C212.174271,296.129242 211.256073,294.254700 210.236267,292.172699 
	C212.047882,290.544708 213.808456,288.962555 215.491928,287.449677 
	C217.222015,287.560455 217.555206,289.164337 218.887817,290.075073 
z"/>
<path fill="#000000" opacity="1.000000" stroke="none" 
	d="
M285.583374,329.676575 
	C287.541992,331.356140 287.429077,333.071503 286.387665,334.763123 
	C285.726898,335.836426 284.576233,336.123901 283.346313,335.893494 
	C281.904205,335.623322 280.842896,334.722534 280.704651,333.320679 
	C280.375427,329.982330 282.253418,328.994385 285.583374,329.676575 
z"/>
</svg>